<svg width="48" height="43" viewBox="0 0 48 43" fill="none" xmlns="http://www.w3.org/2000/svg">
<path d="M44.0125 17.2113V32.4534C44.0125 38.0676 39.5576 42.6148 34.0575 42.6148H14.1474C8.64726 42.6148 4.19238 38.0676 4.19238 32.4534V17.2113C4.19238 15.8141 5.31232 14.6709 6.68114 14.6709H11.584C12.9528 14.6709 14.0727 15.8141 14.0727 17.2113V25.188C14.0727 27.0678 15.0931 28.7953 16.7108 29.6844C17.4326 30.0909 18.229 30.2941 19.0503 30.2941C19.996 30.2941 20.9417 30.0147 21.763 29.4558L24.1273 27.8808L26.3174 29.3796C27.8356 30.4211 29.7768 30.5481 31.3945 29.659C33.0371 28.7699 34.0575 27.0678 34.0575 25.1626V17.2113C34.0575 15.8141 35.1774 14.6709 36.5462 14.6709H41.5237C42.8925 14.6709 44.0125 15.8141 44.0125 17.2113Z" fill="#0041A3"/>
<path d="M47.5047 5.02991V7.54486C47.5047 10.3113 46.1795 12.5748 42.5042 12.5748H5.00049C1.17512 12.5748 0 10.3113 0 7.54486V5.02991C0 2.26346 1.17512 0 5.00049 0H42.5042C46.1795 0 47.5047 2.26346 47.5047 5.02991Z" fill="#0041A3"/>
<path d="M28.8892 16.6709C30.2911 16.6709 31.438 17.7702 31.438 19.1139V26.7603C31.438 28.7147 29.1696 29.8873 27.4874 28.788L25.1935 27.3222C24.3524 26.7847 23.2564 26.7847 22.3898 27.3222L19.994 28.8368C18.3118 29.9117 16.0688 28.7391 16.0688 26.8092V19.1139C16.0688 17.7702 17.2158 16.6709 18.6176 16.6709H28.8892Z" fill="#0041A3"/>
</svg>
