<svg width="48" height="37" viewBox="0 0 48 37" fill="none" xmlns="http://www.w3.org/2000/svg">
<path d="M44.0125 10.8948V26.137C44.0125 31.7512 39.5576 36.2984 34.0575 36.2984H14.1474C8.64726 36.2984 4.19238 31.7512 4.19238 26.137V10.8948C4.19238 9.49765 5.31232 8.35449 6.68114 8.35449H11.584C12.9528 8.35449 14.0727 9.49765 14.0727 10.8948V18.8716C14.0727 20.7514 15.0931 22.4789 16.7108 23.368C17.4326 23.7745 18.229 23.9777 19.0503 23.9777C19.996 23.9777 20.9417 23.6982 21.763 23.1394L24.1273 21.5644L26.3174 23.0632C27.8356 24.1047 29.7768 24.2317 31.3945 23.3426C33.0371 22.4535 34.0575 20.7514 34.0575 18.8462V10.8948C34.0575 9.49765 35.1774 8.35449 36.5462 8.35449H41.5237C42.8925 8.35449 44.0125 9.49765 44.0125 10.8948Z" fill="#0041A3"/>
<path d="M47.5047 12.7145V15.2294C47.5047 17.9959 46.1795 20.2593 42.5042 20.2593H5.00049C1.17512 20.2593 0 17.9959 0 15.2294V12.7145C0 9.94803 1.17512 7.68457 5.00049 7.68457H42.5042C46.1795 7.68457 47.5047 9.94803 47.5047 12.7145Z" fill="#0041A3"/>
<path d="M38.4917 7.68458H24.4512L31.3697 0.711416C32.3108 -0.237139 33.8624 -0.237139 34.8035 0.711416L38.4153 4.35182C39.331 5.27474 39.3565 6.73602 38.4917 7.68458Z" fill="#0041A3"/>
</svg>
